<svg xmlns="http://www.w3.org/2000/svg" width="35.955" height="32.36" viewBox="0 0 35.955 32.36">
  <path id="coins" d="M35.948,13.787c-.059-1.025-1.279-1.827-3.718-2.438a1.351,1.351,0,0,0,.129-.561V6.6h-.01C32.135,3.1,17.824,3,16.18,3S.225,3.1.01,6.6H0v.078H0V10.79c0,1.139,1.472,2.03,3.658,2.693a1.314,1.314,0,0,0-.054.3H3.6v.078h0v4.109c-2.355.606-3.531,1.4-3.59,2.4H0v.078H0v4.116c0,.793.717,1.465,1.886,2.025a1.32,1.32,0,0,0-.08.373H1.8v.078h0v4.116c0,1.993,4.493,3.231,9.479,3.808a.55.55,0,0,0,.109.022c.011,0,.021-.006.032-.007.961.108,1.938.193,2.9.253a.5.5,0,0,0,.059.012c.011,0,.02-.006.031-.007,1.227.074,2.435.112,3.564.112s2.337-.038,3.564-.113c.011,0,.02.007.031.007s.039-.01.059-.012c.967-.061,1.943-.144,2.9-.253.011,0,.021.006.032.006a.55.55,0,0,0,.109-.022c4.986-.578,9.474-1.816,9.479-3.809V26.97h-.01c-.042-.735-.668-1.348-1.905-1.86a1.34,1.34,0,0,0,.117-.539V20.654c2.151-.662,3.593-1.547,3.6-2.675V13.787ZM31.1,24.765l-.2.179a5.361,5.361,0,0,1-1.529.827V22.914a8.918,8.918,0,0,0,1.8-.825v2.48A.381.381,0,0,1,31.1,24.765Zm-13.4,2.785-.264.005c-.214,0-.433.005-.65.007V24.569l.494-.007.1,0q.905-.017,1.807-.058v2.992l-.387.018C18.429,27.529,18.064,27.541,17.693,27.55Zm-2.617.008q-.412-.007-.819-.02l-.1,0q-.49-.016-.973-.04V24.5q.9.042,1.807.058l.095,0,.494.007v3l-.348,0ZM4.253,26.192l-.058-.017V23.28c.56.151,1.161.289,1.8.414v2.925q-.825-.175-1.52-.366Zm12.631,4.962.494.007v3q-1.242-.012-2.4-.07V31.1q.9.042,1.807.058Zm2.283,0q.905-.017,1.807-.058v2.992q-1.154.057-2.4.07v-3l.494-.007Zm4.8-.271v2.976q-.864.091-1.8.158V31.027C22.78,30.987,23.38,30.939,23.97,30.882Zm1.2-.129q.927-.111,1.8-.253v2.942q-.847.149-1.8.274Zm3-.467c.636-.125,1.238-.263,1.8-.414v2.895c-.534.154-1.135.3-1.8.444Zm-20.375,0v2.925c-.663-.141-1.264-.29-1.8-.444V29.872C6.552,30.023,7.154,30.161,7.79,30.286Zm1.2.215q.87.141,1.8.253v2.964q-.95-.125-1.8-.274Zm3,.382c.59.057,1.19.105,1.8.146v2.988q-.934-.066-1.8-.158ZM10.5,27.3l-.182-.019-.129-.014V24.291c.59.057,1.19.105,1.8.146v2.986C11.482,27.387,10.984,27.346,10.5,27.3Zm-1.51-3.138v2.964q-.95-.125-1.8-.274V23.908Q8.061,24.049,8.989,24.161Zm11.785,3.234-.4.03V24.436c.608-.04,1.208-.088,1.8-.146v2.976c-.37.039-.749.076-1.138.107Zm2.6-.27V24.161q.927-.111,1.8-.253V26.85Q24.322,27,23.371,27.125Zm3-3.431c.636-.125,1.238-.263,1.8-.414v2.895c-.534.154-1.135.3-1.8.444Zm-8.195-2.737c-.451-.011-.891-.029-1.324-.05l-.07,0V17.912q.9.042,1.807.058l.095,0,.494.007V20.97c-.292,0-.586,0-.871-.011ZM4.195,12.393V9.5c.56.151,1.161.289,1.8.414v2.925l-.222-.047c-.319-.07-.63-.143-.927-.221C4.617,12.511,4.4,12.452,4.195,12.393ZM15.086,10.78l.494.007v2.992c-.807-.008-1.608-.029-2.4-.068v-2.99q.9.042,1.807.058Zm2.283,0q.905-.017,1.807-.058v2.99l-.3.017h-.026c-.4.018-.812.031-1.227.041l-.194,0c-.213,0-.431,0-.648.007V10.787l.494-.007Zm13.655.3-.017,0-.218.17a5.828,5.828,0,0,1-1.426.736V9.131a8.918,8.918,0,0,0,1.8-.825v2.48A.471.471,0,0,1,31.024,11.079Zm-7.653,2.259v-2.96q.927-.111,1.8-.253v2.938C24.6,13.163,24,13.256,23.371,13.338Zm3-.506V9.912c.636-.125,1.238-.263,1.8-.414v2.888C27.628,12.542,27.023,12.692,26.367,12.832Zm-4.195-2.324V13.48q-.868.092-1.8.159V10.653C20.982,10.613,21.583,10.564,22.172,10.507ZM10.187,13.481V10.507c.59.057,1.19.105,1.8.146v2.983C11.375,13.592,10.773,13.543,10.187,13.481Zm-1.2-3.1v2.961c-.119-.016-.242-.028-.36-.044L8.4,13.262q-.52-.075-1.017-.159l-.2-.035V10.126Q8.061,10.266,8.989,10.378Zm6.443,10.443-.243-.018q-.575-.045-1.124-.1l-.235-.024-.048-.005V17.7c.59.057,1.19.105,1.8.146v2.987Zm-3.959-.448c-.237-.038-.46-.079-.686-.118V17.317q.87.141,1.8.253v2.964c-.367-.049-.726-.1-1.07-.153ZM9.588,17.1v2.92q-.993-.213-1.8-.45V16.688C8.35,16.839,8.952,16.978,9.588,17.1Zm-3-.78v2.847A3.738,3.738,0,0,1,4.844,18.1l-.04-.067a.379.379,0,0,1-.01-.057V15.5A8.918,8.918,0,0,0,6.592,16.322Zm14.372,1.647q.905-.017,1.807-.058V20.9c-.787.039-1.588.061-2.4.069V17.978l.494-.007Zm7.744,2.3c-.263.046-.529.09-.8.132-.156.024-.316.047-.477.07s-.309.04-.463.06V17.569q.927-.111,1.8-.253v2.942Zm-4.058.512c-.224.019-.454.031-.681.047V17.844c.608-.04,1.208-.088,1.8-.146v2.973c-.348.037-.7.073-1.053.1ZM31.5,19.657c-.3.083-.614.161-.937.237-.149.035-.3.07-.457.1l-.142.029V17.1c.636-.125,1.238-.263,1.8-.414v2.895Zm3.251-5.831c-.055.407-.977.948-2.624,1.457h0a40.223,40.223,0,0,1-9.642,1.441c-.215.009-.43.018-.649.025l-.542.016c-.5.011-1,.019-1.519.019s-1.022-.008-1.519-.019c-.182,0-.362-.01-.542-.016-.22-.007-.434-.016-.649-.025a40.218,40.218,0,0,1-9.642-1.441h0c-1.633-.5-2.553-1.041-2.622-1.447a.141.141,0,0,1,.01-.035c.041.01.086.019.128.029.234.056.475.11.719.161,1.191.256,2.51.467,3.916.627l.013,0h0c.958.109,1.951.195,2.971.255.008,0,.014,0,.022,0l.011,0q1.1.065,2.23.092c.461.011.913.017,1.354.017.315,0,.637,0,.962-.01a45.888,45.888,0,0,0,11.2-1.387c.129-.037.256-.074.381-.112l.228-.07c.217-.07.425-.141.626-.215l.1-.04c.17-.064.333-.131.488-.2l.135-.059c.166-.075.327-.152.475-.231.067-.035.125-.072.188-.108s.144-.083.21-.126c.038-.024.083-.047.119-.071C33.975,12.941,34.682,13.577,34.75,13.825ZM16.18,4.2c9.881,0,14.879,1.556,14.972,2.449-.073.405-.992.94-2.621,1.444h0a40.223,40.223,0,0,1-9.642,1.441c-.215.009-.43.018-.649.025l-.542.016c-.5.011-1,.019-1.519.019s-1.022-.008-1.519-.019c-.182,0-.362-.01-.542-.016-.22-.007-.434-.016-.649-.025A40.218,40.218,0,0,1,3.829,8.091h0C2.2,7.587,1.28,7.052,1.207,6.647,1.3,5.754,6.3,4.2,16.18,4.2ZM1.2,10.788V8.306A8.918,8.918,0,0,0,3,9.131V12C1.831,11.563,1.2,11.125,1.2,10.788Zm2.9,8.293c.009.01.023.018.032.028a10.194,10.194,0,0,0,4.634,1.964l.149.034q.233.052.472.1a46.216,46.216,0,0,0,6.787.861h.007q1.217.071,2.489.095c.375.008.744.013,1.105.013.413,0,.838,0,1.269-.015.784-.016,1.556-.049,2.318-.093l.008,0c.005,0,.01,0,.015,0a46.348,46.348,0,0,0,6.918-.886,10.856,10.856,0,0,1-1.773.693h0a41.352,41.352,0,0,1-10.356,1.468l-.4.013-.445.009c-.377.006-.756.011-1.146.011-.519,0-1.022-.008-1.519-.019-.182,0-.362-.01-.542-.016-.22-.007-.434-.016-.649-.025a40.218,40.218,0,0,1-9.642-1.441h0c-1.648-.509-2.57-1.051-2.624-1.458C1.272,20.19,1.877,19.626,4.1,19.081Zm-2.9,5.49V22.089a8.918,8.918,0,0,0,1.8.825v2.858l-.342-.133-.007.007C1.706,25.256,1.2,24.873,1.2,24.571ZM3,31.162V28.681a8.918,8.918,0,0,0,1.8.825v2.869C3.628,31.938,3,31.5,3,31.162Zm28.165,1.212V29.506a8.917,8.917,0,0,0,1.8-.825v2.48C32.958,31.5,32.327,31.937,31.161,32.375Zm1.79-5.359c-.065.406-.986.944-2.622,1.45h0a40.223,40.223,0,0,1-9.642,1.441c-.215.009-.43.018-.649.025l-.542.016c-.5.011-1,.019-1.519.019s-1.023-.008-1.52-.019c-.18,0-.358-.01-.536-.016-.221-.007-.437-.016-.653-.025a40.223,40.223,0,0,1-9.642-1.441h0c-1.585-.49-2.5-1.01-2.616-1.411.179.062.364.123.554.182l.058.017q.243.075.5.144l.194.053c.1.026.194.05.292.076a43.718,43.718,0,0,0,7.976,1.133h0c.929.055,1.877.089,2.836.1.255,0,.509.007.757.007.33,0,.668,0,1.01-.01.874-.014,1.737-.047,2.581-.1h0l.008,0c1.028-.062,2.022-.15,2.978-.259l.01,0c.013,0,.024-.007.037-.008,1.064-.123,2.073-.274,3.01-.449.193-.035.383-.072.571-.11l.126-.026a16.1,16.1,0,0,0,4.352-1.417c.058-.031.111-.064.166-.1s.13-.08.192-.12.124-.073.177-.111C32.586,26.488,32.912,26.866,32.951,27.016Zm.008-7.825V16.323a8.918,8.918,0,0,0,1.8-.825v2.48C34.756,18.315,34.124,18.754,32.959,19.191Z" transform="translate(0 -3)" fill="#82ad45"/>
</svg>
