<svg xmlns="http://www.w3.org/2000/svg" width="34.537" height="30.22" viewBox="0 0 34.537 30.22">
  <g id="credit-card" transform="translate(0 0)">
    <g id="Group_43" data-name="Group 43" transform="translate(0 6.475)">
      <g id="Group_42" data-name="Group 42">
        <path id="Path_52" data-name="Path 52" d="M33.458,140.948a1.08,1.08,0,0,0-1.079,1.079v7.555H2.159V136.63H14.031a1.079,1.079,0,1,0,0-2.159H2.159v-4.317H14.031a1.079,1.079,0,0,0,0-2.159H2.159A2.159,2.159,0,0,0,0,130.155v19.427a2.159,2.159,0,0,0,2.159,2.159h30.22a2.159,2.159,0,0,0,2.159-2.159v-7.555A1.08,1.08,0,0,0,33.458,140.948Z" transform="translate(0 -127.996)" fill="#777"/>
      </g>
    </g>
    <g id="Group_45" data-name="Group 45" transform="translate(4.317 19.427)">
      <g id="Group_44" data-name="Group 44">
        <path id="Path_53" data-name="Path 53" d="M69.4,320H65.079a1.079,1.079,0,0,0,0,2.159H69.4a1.079,1.079,0,1,0,0-2.159Z" transform="translate(-64 -319.996)" fill="#777"/>
      </g>
    </g>
    <g id="Group_47" data-name="Group 47" transform="translate(17.269 0)">
      <g id="Group_46" data-name="Group 46">
        <path id="Path_54" data-name="Path 54" d="M272.615,35.328,265.06,32.09a1.1,1.1,0,0,0-.853,0l-7.555,3.238a1.082,1.082,0,0,0-.652.993v4.317c0,5.938,2.2,9.409,8.1,12.809a1.085,1.085,0,0,0,1.075,0c5.9-3.391,8.1-6.862,8.1-12.809V36.321A1.08,1.08,0,0,0,272.615,35.328Zm-1.5,5.31c0,4.984-1.649,7.728-6.476,10.62-4.827-2.9-6.476-5.643-6.476-10.62v-3.6l6.476-2.776,6.476,2.776Z" transform="translate(-256 -32.004)" fill="#777"/>
      </g>
    </g>
    <g id="Group_49" data-name="Group 49" transform="translate(21.587 6.477)">
      <g id="Group_48" data-name="Group 48">
        <path id="Path_55" data-name="Path 55" d="M328.241,128.25a1.086,1.086,0,0,0-1.517.168l-3.393,4.244-1.343-2.007a1.079,1.079,0,1,0-1.8,1.2l2.159,3.238a1.088,1.088,0,0,0,.853.481h.045a1.08,1.08,0,0,0,.844-.406l4.317-5.4A1.08,1.08,0,0,0,328.241,128.25Z" transform="translate(-320.011 -128.016)" fill="#777"/>
      </g>
    </g>
  </g>
</svg>
