<svg id="Logo" xmlns="http://www.w3.org/2000/svg" width="131.975" height="47.029" viewBox="0 0 131.975 47.029">
  <g id="sushi2" transform="translate(0 0)">
    <path id="Path_1" data-name="Path 1" d="M84.994,54.654c0,6.493-9.475,11.757-21.163,11.757S42.668,61.147,42.668,54.654s9.474-10.973,21.163-10.973S84.994,48.161,84.994,54.654Z" transform="translate(-38.749 -39.761)" fill="#82ad45"/>
    <ellipse id="Ellipse_1" data-name="Ellipse 1" cx="21.163" cy="11.757" rx="21.163" ry="11.757" transform="translate(0.783 3.137)" fill="#fff"/>
    <path id="Path_2" data-name="Path 2" d="M84.992,163.148v21.946c0,5.2-9.476,9.406-21.163,9.406-.266,0-.533,0-.8-.008-11.318-.188-20.363-4.319-20.363-9.4V169.3c3.6,3.245,9.939,5.447,17.228,5.6.266.008.533.008.8.008.2,0,.392,0,.58-.016.329.008.658.016.988.016.259,0,.509,0,.768-.008.266.008.533.008.8.008.509,0,1.019-.008,1.521-.031.917-.031,1.818-.1,2.7-.2.431-.047.862-.1,1.285-.172.3-.039.588-.086.878-.141.227-.031.455-.078.674-.125a6.111,6.111,0,0,0,.635-.133,6.3,6.3,0,0,0,.666-.149c.212-.047.415-.094.619-.157.18-.039.353-.086.525-.141.259-.063.517-.141.768-.219.266-.086.525-.172.776-.251.384-.133.752-.266,1.113-.408.18-.071.361-.141.533-.219s.361-.149.525-.227.345-.149.509-.235.337-.157.5-.243.321-.165.478-.251a17.259,17.259,0,0,0,2.32-1.474c.219-.165.439-.337.643-.5.125-.1.243-.212.361-.313.274-.259.541-.509.784-.776A7.89,7.89,0,0,0,84.992,163.148Z" transform="translate(-38.748 -148.255)" fill="#82ad45"/>
    <path id="Path_3" data-name="Path 3" d="M50.858,169.309v15.786c0,5.079-9.045,9.21-20.363,9.4-.266.008-.533.008-.8.008s-.533,0-.8-.008c-11.318-.188-20.363-4.319-20.363-9.4V163.148a7.9,7.9,0,0,0,2.351,5.385c3.4,3.66,10.158,6.2,18.012,6.364.266.008.533.008.8.008.2,0,.392,0,.58-.016.329.008.658.016.988.016.259,0,.51,0,.768-.008.266.008.533.008.8.008C40.449,174.9,47.135,172.663,50.858,169.309Z" transform="translate(-7.749 -148.255)" fill="#fff"/>
    <g id="Group_1" data-name="Group 1" transform="translate(3.135 3.136)">
      <path id="Path_4" data-name="Path 4" d="M74.893,46.9c0,6.493-9.124,11.757-20.379,11.757S34.134,53.4,34.134,46.9c0-6.342,8.7-11.511,19.595-11.748.26-.006,1.305,1.559,1.568,1.559s.524-1.573.784-1.568C66.973,35.385,74.893,40.562,74.893,46.9Z" transform="translate(-34.134 -35.147)" fill="#9fc766"/>
      <path id="Path_5" data-name="Path 5" d="M74.891,221.772v16.562c0,5.079-8.708,9.21-19.611,9.4-.259.008-.51.008-.768.008s-.509,0-.768-.008c-10.9-.188-19.611-4.319-19.611-9.4V221.772c.243.259.51.517.784.768,3.6,3.245,9.939,5.447,17.228,5.6.266.008.533.008.8.008.2,0,.392,0,.58-.016.329.008.658.016.988.016.259,0,.51,0,.768-.008.266.008.533.008.8.008.509,0,1.019-.008,1.521-.031.917-.031,1.818-.1,2.7-.2.439-.047.862-.1,1.285-.172.3-.039.588-.086.878-.141.227-.039.455-.078.674-.125s.423-.086.635-.133c.227-.039.447-.094.666-.149s.415-.094.619-.157c.18-.039.353-.086.525-.141.259-.071.517-.141.768-.219.266-.086.525-.172.776-.251.384-.133.752-.266,1.113-.408.18-.071.361-.149.533-.219s.361-.149.525-.227.345-.157.509-.235.337-.157.5-.243.321-.165.478-.251a17.262,17.262,0,0,0,2.32-1.474c.219-.157.439-.329.643-.5.125-.1.243-.212.361-.313C74.381,222.289,74.648,222.039,74.891,221.772Z" transform="translate(-34.133 -204.63)" fill="#9fc766"/>
    </g>
    <path id="Path_6" data-name="Path 6" d="M93.26,99.673c-9.421,0-16.46-3.517-16.46-6.662s7.039-6.662,16.46-6.662,16.46,3.517,16.46,6.662S102.68,99.673,93.26,99.673Z" transform="translate(-69.746 -78.509)" fill="#82ad45"/>
    <path id="Path_7" data-name="Path 7" d="M92.084,99.674c-8.748,0-15.284-3.517-15.284-6.662s6.536-6.662,15.284-6.662,15.284,3.517,15.284,6.662S100.832,99.674,92.084,99.674Z" transform="translate(-69.746 -78.51)" fill="#9fc766"/>
    <path id="Path_8" data-name="Path 8" d="M165.937,26.14a.781.781,0,0,1-.626-.768V20.623a2.337,2.337,0,0,0-.047-.47,2.22,2.22,0,0,0-.807-1.348,6.6,6.6,0,0,1-1.952-2.469c-1.278-2.743,1.6-6.788,1.6-6.788s4.946.415,6.215,3.167a6.2,6.2,0,0,1,.415,4.334.479.479,0,0,0,.455.611h.008a.472.472,0,0,0,.455-.611,6.2,6.2,0,0,1,.408-4.334c1.27-2.751,6.216-3.167,6.216-3.167s2.877,4.044,1.6,6.788a6.353,6.353,0,0,1-2.406,2.782,2.439,2.439,0,0,0-.956,1.058,2.2,2.2,0,0,0-.227.98v4.216a.782.782,0,0,1-.626.768,29.671,29.671,0,0,1-4.863.652,29.615,29.615,0,0,1-4.859-.652Z" transform="translate(-147.282 -8.763)" fill="#d22047"/>
    <path id="Path_9" data-name="Path 9" d="M257.232,86.357c-.235-.008-.462-.008-.7-.008" transform="translate(-232.971 -78.51)" fill="#ffa800"/>
    <path id="Path_10" data-name="Path 10" d="M231.632,86.357c-.235-.008-.462-.008-.7-.008" transform="translate(-209.722 -78.51)" fill="#fedd0a"/>
    <g id="Group_2" data-name="Group 2" transform="translate(0 3.175)">
      <path id="Path_11" data-name="Path 11" d="M23.514,59.828C10.329,59.828,0,54.32,0,47.287c0-5.268,5.923-9.868,15.09-11.718l.311,1.537C7.126,38.776,1.568,42.868,1.568,47.287c0,6.051,9.845,10.973,21.946,10.973S45.46,53.338,45.46,47.287c0-4.293-5.107-8.22-13.012-10l.346-1.529c8.646,1.953,14.233,6.48,14.233,11.534C47.028,54.32,36.7,59.828,23.514,59.828Z" transform="translate(0 -35.569)"/>
      <path id="Path_12" data-name="Path 12" d="M257.205,79.39c-.227-.008-.439-.011-.672-.007V77.815c.243,0,.479,0,.723.008Z" transform="translate(-232.97 -73.935)"/>
      <path id="Path_13" data-name="Path 13" d="M85.511,101.118c-9.186,0-17.244-3.48-17.244-7.446,0-2.687,3.694-5.276,9.41-6.6l.352,1.528c-5.379,1.242-8.195,3.489-8.195,5.068,0,2.34,6.252,5.879,15.676,5.879a34.584,34.584,0,0,0,5.663-.452c6.267-1.041,10.013-3.577,10.013-5.427,0-1.477-2.593-3.638-7.546-4.908l.389-1.519c5.3,1.359,8.725,3.881,8.725,6.426,0,3-4.656,5.866-11.323,6.973A36.14,36.14,0,0,1,85.511,101.118Z" transform="translate(-61.997 -82.346)"/>
      <path id="Path_14" data-name="Path 14" d="M23.531,195.284c-13.185,0-23.514-4.476-23.514-10.189V163.148H1.585c0,6.051,9.845,10.973,21.946,10.973s21.946-4.922,21.946-10.973h1.568v21.946C47.045,190.808,36.716,195.284,23.531,195.284ZM1.585,167.737v17.357c0,4.673,10.05,8.622,21.946,8.622s21.946-3.948,21.946-8.622V167.737c-3.367,4.7-11.814,7.952-21.946,7.952S4.952,172.435,1.585,167.737Z" transform="translate(-0.015 -151.43)"/>
      <path id="Path_15" data-name="Path 15" d="M248.268,353.322a.784.784,0,0,1,0-1.568c11.9,0,21.946-3.949,21.946-8.622a.784.784,0,1,1,1.568,0C271.782,348.846,261.453,353.322,248.268,353.322Z" transform="translate(-224.752 -314.171)"/>
      <path id="Path_16" data-name="Path 16" d="M308.013,296.317a.784.784,0,0,1-.08-1.563c9.583-.984,16.539-4.495,16.539-8.35a.784.784,0,1,1,1.568,0c0,4.826-7.212,8.808-17.945,9.909A.724.724,0,0,1,308.013,296.317Z" transform="translate(-279.01 -262.652)"/>
      <path id="Path_17" data-name="Path 17" d="M347.321,250.138a.784.784,0,0,1-.139-1.555c7.768-1.406,12.987-4.561,12.987-7.851a.784.784,0,1,1,1.568,0c0,4.2-5.471,7.8-14.276,9.393a.771.771,0,0,1-.14.013Z" transform="translate(-314.708 -221.176)"/>
      <path id="Path_18" data-name="Path 18" d="M15.691,341.935a.785.785,0,0,1-.119-.009C6.123,340.489.017,336.718.017,332.32a.784.784,0,1,1,1.568,0c0,3.47,5.849,6.783,14.224,8.056a.784.784,0,0,1-.117,1.559Z" transform="translate(-0.015 -304.351)"/>
      <path id="Path_19" data-name="Path 19" d="M12.557,288.059a.787.787,0,0,1-.175-.019c-7.742-1.77-12.365-5.135-12.365-9a.784.784,0,0,1,1.568,0c0,2.993,4.375,5.927,11.146,7.474a.784.784,0,0,1-.174,1.548Z" transform="translate(-0.015 -255.962)"/>
      <path id="Path_20" data-name="Path 20" d="M10.2,238.324a.782.782,0,0,1-.225-.033c-6.331-1.9-9.962-4.95-9.962-8.371a.784.784,0,1,1,1.568,0c0,2.64,3.307,5.208,8.845,6.869a.784.784,0,0,1-.225,1.535Z" transform="translate(-0.015 -211.357)"/>
    </g>
    <path id="Path_21" data-name="Path 21" d="M177.481,16.336a6.353,6.353,0,0,1-2.406,2.782,2.438,2.438,0,0,0-.956,1.058,2.194,2.194,0,0,0-.227.98v4.217a.787.787,0,0,1-.627.768c-.831.165-2.359.455-3.684.588-1.325-.133-2.853-.423-3.684-.588a.781.781,0,0,1-.627-.768v-4.75a2.329,2.329,0,0,0-.047-.47,2.22,2.22,0,0,0-.807-1.348,6.6,6.6,0,0,1-1.952-2.469c-1.042-2.234.666-5.322,1.34-6.4.157-.251.259-.392.259-.392s4.3.361,5.91,2.641a3.164,3.164,0,0,1,.306.525,6.2,6.2,0,0,1,.415,4.334.479.479,0,0,0,.455.611h.008a.472.472,0,0,0,.455-.611,6.2,6.2,0,0,1,.408-4.334c.721-1.552,2.61-2.367,4.123-2.775C176.815,11.014,178.523,14.1,177.481,16.336Z" transform="translate(-147.242 -8.763)" fill="#db4e6c"/>
    <g id="Group_3" data-name="Group 3" transform="translate(10.973 0)">
      <path id="Path_22" data-name="Path 22" d="M163.083,19.814a29.99,29.99,0,0,1-5.015-.667,1.571,1.571,0,0,1-1.253-1.536V12.862a1.548,1.548,0,0,0-.031-.309,1.445,1.445,0,0,0-.523-.892,7.353,7.353,0,0,1-2.179-2.756c-1.454-3.121,1.542-7.392,1.671-7.573a.761.761,0,0,1,.7-.327c.22.019,5.417.489,6.861,3.619.056.121.109.243.159.366q.073-.184.157-.365c1.444-3.131,6.642-3.6,6.862-3.62a.764.764,0,0,1,.7.327c.129.18,3.125,4.452,1.671,7.573a7.174,7.174,0,0,1-2.71,3.121,1.671,1.671,0,0,0-.65.713,1.448,1.448,0,0,0-.157.656v4.216a1.571,1.571,0,0,1-1.254,1.536A30.053,30.053,0,0,1,163.083,19.814Zm-4.7-2.2h0a29.4,29.4,0,0,0,4.7.636,29.452,29.452,0,0,0,4.707-.636l0-4.216a2.978,2.978,0,0,1,.311-1.331,3.177,3.177,0,0,1,1.248-1.375,5.6,5.6,0,0,0,2.1-2.443c.8-1.709-.479-4.357-1.274-5.625-1.482.212-4.328.949-5.118,2.661a5.428,5.428,0,0,0-.37,3.777,1.26,1.26,0,0,1-.189,1.113,1.31,1.31,0,0,1-2.023.012,1.259,1.259,0,0,1-.208-1.11,5.444,5.444,0,0,0-.372-3.79c-.795-1.721-3.637-2.455-5.118-2.664-.8,1.268-2.071,3.917-1.276,5.624a5.792,5.792,0,0,0,1.716,2.176,3.026,3.026,0,0,1,1.1,1.825,3.089,3.089,0,0,1,.061.617v4.749h0Z" transform="translate(-150.543 -1.002)"/>
      <path id="Path_23" data-name="Path 23" d="M276.986,156.184h-3.135a.784.784,0,0,1,0-1.568h3.135a.784.784,0,0,1,0,1.568Z" transform="translate(-258.959 -140.506)"/>
      <path id="Path_24" data-name="Path 24" d="M191.653,139.117h-3.135a.784.784,0,0,1,0-1.568h3.135a.784.784,0,0,1,0,1.568Z" transform="translate(-181.463 -125.007)"/>
      <path id="Path_25" data-name="Path 25" d="M120.25,147.744a.809.809,0,0,1-.557-.227.823.823,0,0,1-.227-.557.783.783,0,0,1,.063-.3.9.9,0,0,1,.165-.258.821.821,0,0,1,1.113,0,.9.9,0,0,1,.165.258.663.663,0,0,1,.063.3.983.983,0,0,1-.016.157.488.488,0,0,1-.047.141.606.606,0,0,1-.07.141l-.094.117A.811.811,0,0,1,120.25,147.744Z" transform="translate(-119.466 -132.851)"/>
      <path id="Path_26" data-name="Path 26" d="M145.741,173.031a.993.993,0,0,1-.149-.016.483.483,0,0,1-.149-.047.6.6,0,0,1-.142-.071,1.189,1.189,0,0,1-.117-.094.795.795,0,1,1,.557.227Z" transform="translate(-142.606 -155.787)"/>
      <path id="Path_27" data-name="Path 27" d="M154.532,130.731a.776.776,0,1,1,.557-.227.825.825,0,0,1-.557.227Z" transform="translate(-150.613 -117.405)"/>
      <path id="Path_28" data-name="Path 28" d="M376.25,147.647a.785.785,0,0,1-.3-.063.812.812,0,0,1-.259-.165.822.822,0,0,1-.227-.556,1.2,1.2,0,0,1,.015-.157.509.509,0,0,1,.047-.141.583.583,0,0,1,.07-.141l.094-.117a.807.807,0,0,1,.259-.165.751.751,0,0,1,.455-.047.5.5,0,0,1,.141.047.6.6,0,0,1,.141.071l.118.094.094.117a.612.612,0,0,1,.07.141.484.484,0,0,1,.047.141,1.092,1.092,0,0,1,.016.157.825.825,0,0,1-.227.557l-.118.094a.6.6,0,0,1-.141.071.519.519,0,0,1-.141.047A1.123,1.123,0,0,1,376.25,147.647Z" transform="translate(-351.952 -132.753)"/>
      <path id="Path_29" data-name="Path 29" d="M350.65,173.285a.776.776,0,0,1-.784-.784,1.2,1.2,0,0,1,.015-.157.509.509,0,0,1,.047-.141.583.583,0,0,1,.07-.141,1.221,1.221,0,0,1,.094-.117.824.824,0,0,1,.7-.212.476.476,0,0,1,.149.047.437.437,0,0,1,.133.071c.047.031.087.063.126.094a.825.825,0,0,1,.227.557.784.784,0,0,1-.063.3.812.812,0,0,1-.165.259.744.744,0,0,1-.126.094.437.437,0,0,1-.133.071.487.487,0,0,1-.149.047A1,1,0,0,1,350.65,173.285Z" transform="translate(-328.704 -156.04)"/>
      <path id="Path_30" data-name="Path 30" d="M342.115,130.578a1.1,1.1,0,0,1-.157-.016.51.51,0,0,1-.141-.047.6.6,0,0,1-.142-.071l-.117-.094a1.317,1.317,0,0,1-.094-.117.582.582,0,0,1-.07-.141.516.516,0,0,1-.048-.141,1.2,1.2,0,0,1-.015-.157.653.653,0,0,1,.063-.3.905.905,0,0,1,.165-.258l.117-.094a.6.6,0,0,1,.142-.071.5.5,0,0,1,.141-.047.752.752,0,0,1,.455.047.911.911,0,0,1,.259.165.8.8,0,0,1,.165.258.784.784,0,0,1,.063.3.811.811,0,0,1-.227.557.917.917,0,0,1-.259.165.783.783,0,0,1-.3.063Z" transform="translate(-320.952 -117.252)"/>
    </g>
  </g>
  <text id="wasabi" transform="translate(58.975 31.041)" fill="#fff" font-size="20" font-family="Montserrat-SemiBold, Montserrat" font-weight="600"><tspan x="0" y="0">wasabi</tspan></text>
</svg>
