<svg xmlns="http://www.w3.org/2000/svg" width="110.1" height="25.333" viewBox="0 0 110.1 25.333">
  <g id="Smart_Web_white" data-name="Smart Web white" transform="translate(-49.8 -271.2)">
    <g id="Group_5" data-name="Group 5" transform="translate(49.8 271.2)" opacity="0.6">
      <g id="Group_4" data-name="Group 4" transform="translate(0 0)">
        <path id="Path_8" data-name="Path 8" d="M141.309,275.8h0a4.978,4.978,0,0,0-1.909.444,11.6,11.6,0,0,1,1.909-.444" transform="translate(-128.641 -275.248)" fill="#a3a3a3"/>
        <path id="Path_9" data-name="Path 9" d="M85.422,275.021a5.513,5.513,0,0,1,4.419-1.705l.012-.108h0c-2.27-.6-9.222,1.285-8.922,6.04a13.957,13.957,0,0,1,4.491-4.227" transform="translate(-77.184 -272.872)" fill="#a3a3a3"/>
        <g id="Group_2" data-name="Group 2" transform="translate(0.16)">
          <path id="Path_10" data-name="Path 10" d="M129.366,271.74h.024a4.344,4.344,0,0,0,1.273-.444.012.012,0,0,0-.012-.012H130.6a3.665,3.665,0,0,1-.588-.06c-.348-.012-.42-.024-.564-.024h-.576c-.4.024-.4.012-.6.036-.432.048-.444.048-.672.072a13.778,13.778,0,0,0-1.8.384c3.158-.841,3.518-.108,3.566.048" transform="translate(-116.834 -271.2)" fill="#a3a3a3"/>
          <path id="Path_11" data-name="Path 11" d="M52.255,300.992a14.216,14.216,0,0,1,1.1-5.452c-.372-1.885-.324-4.383,3.362-6.941a12.973,12.973,0,0,0-1.621,1.273,13.554,13.554,0,0,0-1.429,1.561,12.67,12.67,0,0,0-1.153,1.753,12.414,12.414,0,0,0-.853,1.921c-.108.348-.252.817-.348,1.177a7.356,7.356,0,0,0,.961,5.632c-.012-.3-.024-.6-.024-.925" transform="translate(-51.13 -286.511)" fill="#a3a3a3"/>
        </g>
        <g id="Group_3" data-name="Group 3" transform="translate(0 0.296)">
          <path id="Path_12" data-name="Path 12" d="M155.7,273.921h0c1.621.3,3.242.516,4.863.829a6.432,6.432,0,0,1,1.477.384h-.012a11.553,11.553,0,0,0-1.645-.817,9.94,9.94,0,0,0-1.189-.42,7.35,7.35,0,0,0-.9-.228,19.146,19.146,0,0,0-2.594.252" transform="translate(-142.984 -273.665)" fill="#a3a3a3"/>
          <path id="Path_13" data-name="Path 13" d="M51.613,389.327A8.266,8.266,0,0,1,49.8,384.8c.036.42.1.973.156,1.393a12.724,12.724,0,0,0,.516,2.065,12.879,12.879,0,0,0,1.981,3.7c.192.228.444.552.648.768a12.472,12.472,0,0,0,1.513,1.369,10.381,10.381,0,0,1-3-4.767" transform="translate(-49.8 -371.455)" fill="#a3a3a3"/>
        </g>
        <path id="Path_14" data-name="Path 14" d="M154.344,275.8h-.024c-1.069,1.4,3.915,3.314,7.217,4.587,2.642,1.021,3.843,1.537,4.227,2.209-.168-.324-.384-.756-.564-1.081a12.34,12.34,0,0,0-1.213-1.717,13.541,13.541,0,0,0-1.477-1.5c-.576-.4-1.345-.588-3.915-1.237a38.683,38.683,0,0,1-4.191-1.237.2.2,0,0,1-.06-.024" transform="translate(-141.64 -275.248)" fill="#a3a3a3"/>
        <path id="Path_15" data-name="Path 15" d="M126.225,275.8h0a11.176,11.176,0,0,0-3.182.937c-.961.925-3.134,4.371,9.126,9.943,3.975,1.813,6.6,3,6.424,4.3l.132-.648a12.619,12.619,0,0,0,.18-2.173,14.141,14.141,0,0,0-.276-2.714l-.1-.4c-.348-.853-1.333-1.369-5.067-2.918-9.858-4.119-8.766-5.728-7.241-6.328" transform="translate(-113.557 -275.248)" fill="#a3a3a3"/>
        <path id="Path_16" data-name="Path 16" d="M79.071,295.5A14.665,14.665,0,0,0,75,300.279c1.345,5.872,9.895,10.363,14.866,12.524,2.894,1.249,3.71,1.741,3.182,2.318l.156-.132a13.556,13.556,0,0,0,1.429-1.561,12.32,12.32,0,0,0,1.141-1.765l.432-.877c.192-.708-.108-1.417-5.62-3.987-11.179-5.223-12.44-9.03-11.516-11.3" transform="translate(-71.974 -292.582)" fill="#a3a3a3"/>
      </g>
    </g>
    <g id="Group_7" data-name="Group 7" transform="translate(49.812 271.212)">
      <g id="Group_6" data-name="Group 6" transform="translate(0 0)">
        <path id="Path_17" data-name="Path 17" d="M53.236,279.886a12.82,12.82,0,0,1,2.005-3.674,12.319,12.319,0,0,1,1.429-1.561,12.849,12.849,0,0,1,1.621-1.273,13.18,13.18,0,0,1,3.374-1.573,11.567,11.567,0,0,1,1.8-.384,5.8,5.8,0,0,1,.672-.072l.6-.036c.324-.012.324-.012.576-.012.36.012.36.024.564.036.4.024.4.06.588.06h0c-.108,0-11.3,1.957-13.569,9.7a10.028,10.028,0,0,1,.336-1.213" transform="translate(-52.54 -271.3)" fill="#a3a3a3"/>
        <path id="Path_18" data-name="Path 18" d="M52.554,294.109a12.879,12.879,0,0,1-1.981-3.7,12.18,12.18,0,0,1-.516-2.065c-.048-.42-.12-.973-.156-1.393,0-1.165-.024-4.263,3.806-7.6a30.45,30.45,0,0,1,10.9-5.536c.552-.168.552-.168.612-.216.552.132.588.144.9.228a12.375,12.375,0,0,1,1.189.42,13.993,13.993,0,0,1,1.645.817h.012c.036.024.072.06.108.084.012.36-.168.5-2.654,1.6C48.1,284.839,50.272,291.588,53.19,294.89c-.192-.24-.456-.54-.636-.781" transform="translate(-49.9 -273.324)" fill="#a3a3a3"/>
        <path id="Path_19" data-name="Path 19" d="M76,317.966c-3.134-1.8-11.636-8.478,10.723-18.984,2.846-1.345,3.734-1.789,3.29-2.281a12.877,12.877,0,0,1,1.477,1.5,12.577,12.577,0,0,1,1.213,1.717c.168.324.408.745.564,1.081.18.672.012.985-5.007,3.518-22.971,11.624-8.382,14.53-6.7,14.385a9.865,9.865,0,0,1-5.56-.937" transform="translate(-69.155 -293.65)" fill="#a3a3a3"/>
        <path id="Path_20" data-name="Path 20" d="M135.578,352.8l.1.4a13.781,13.781,0,0,1,.276,2.714,13.47,13.47,0,0,1-.18,2.173l-.132.648c-.336.889-1.381,1.309-3.915,2.33-13.329,5.4-9.018,7-8.478,7.157h0c-3.614-.06-6.328-2.39-2.51-6.04,2.534-2.426,6.688-4.407,10.015-6,3.65-1.741,5.019-2.486,4.827-3.374" transform="translate(-110.602 -343.014)" fill="#a3a3a3"/>
        <path id="Path_21" data-name="Path 21" d="M165.1,422.8l-.432.877a13.455,13.455,0,0,1-1.141,1.765A12.318,12.318,0,0,1,162.1,427l-.156.132c-.564.42-1.3.624-3.927,1.273a26.9,26.9,0,0,0-4.5,1.4c-1.045-1.093,1.693-2.834,8.117-5.163,1.837-.66,3.146-1.177,3.47-1.849" transform="translate(-140.88 -404.608)" fill="#a3a3a3"/>
      </g>
    </g>
    <g id="Group_8" data-name="Group 8" transform="translate(76.83 277.216)">
      <path id="Path_22" data-name="Path 22" d="M279.379,326.788c-1.333-.528-2.534-.961-2.534-2.27,0-1.141.961-1.693,2.113-1.693.973,0,2.065.384,2.065,1.1v.829h1.561v-1.417c0-1.345-1.849-2.041-3.638-2.041-2.005,0-3.819,1-3.819,3.326,0,2.185,1.6,2.882,3.17,3.494,1.465.588,2.858,1.069,2.858,2.5,0,1.225-.973,1.885-2.342,1.885-1.249,0-2.354-.54-2.354-1.453v-.9H274.9v1.273c0,1.765,2.053,2.618,3.915,2.618,2.209,0,4.059-1.225,4.059-3.578C282.873,328.169,281.132,327.472,279.379,326.788Z" transform="translate(-274.9 -321.3)" fill="#a3a3a3"/>
      <path id="Path_23" data-name="Path 23" d="M391.825,341.883c-.636,0-1.8-.228-1.8-2.029v-3.9h2.041v-1.669h-2.041V332h-1.681v2.281h-2.45a3.037,3.037,0,0,0-2.7,2.281h-.036s.024-.216.024-.576v-.564c0-.72-.336-1.033-1.081-1.033h-1.921v1.321h1.057c.24,0,.384.108.384.372v5.884h-2.774l-3.458-7.925H373.6l-3.458,7.925h-1.729v-4.383c0-2.257-.913-3.362-2.8-3.362a3.338,3.338,0,0,0-3.074,2.1H362.5a2.321,2.321,0,0,0-2.5-2.113,3.446,3.446,0,0,0-3.038,2.113h-.036a1.92,1.92,0,0,0,.06-.492v-.456c0-.648-.372-.985-1.093-.985H354v1.321h1.033c.24,0,.408.108.408.36v5.884H354.12v1.321h4.323v-1.321H357v-2.726c0-1.729.961-3.518,2.582-3.518,1.321,0,1.5,1.069,1.5,2.221v5.356h3v-1.321h-1.321v-2.8c0-1.753.889-3.446,2.486-3.446,1.285,0,1.477.985,1.477,2.221v5.344h6.244v-1.321h-1.249l.384-.913v-.012l1.369-3.266h0l.793-1.813a3.615,3.615,0,0,0,.192-.708h.048a2.825,2.825,0,0,0,.192.708l.853,1.981,1.081,2.642.012.012.588,1.381h-1.261V343.3H384.5v-1.321h-1.2V339.6c0-1.729.745-3.638,2.57-3.638h2.474v4.059a2.977,2.977,0,0,0,3.254,3.3,4.386,4.386,0,0,0,.588-.036V341.87S392.053,341.883,391.825,341.883Z" transform="translate(-344.502 -330.715)" fill="#a3a3a3"/>
    </g>
    <path id="Path_24" data-name="Path 24" d="M675.9,322.9h4.227v1.345H678.71l1.849,8.093c.084.432.132.925.132.925h.048s.072-.492.168-.925l2.5-9.438h1.429l2.474,9.438a6.308,6.308,0,0,1,.168.925h.072a9.166,9.166,0,0,1,.12-.925l1.849-8.093H688.1V322.9h4.251v1.345H691.21l-2.666,11h-1.921l-2.306-8.766a5.788,5.788,0,0,1-.156-.985h-.072a5.968,5.968,0,0,1-.156.985l-2.33,8.754h-1.921l-2.642-11H675.9Z" transform="translate(-550.919 -45.492)" fill="#a3a3a3"/>
    <path id="Path_25" data-name="Path 25" d="M888.429,324.209H887V322.9h3.074v4.095a5.339,5.339,0,0,1-.048.732h.036a3.07,3.07,0,0,1,2.75-1.537c2.305,0,3.758,1.885,3.758,4.635,0,2.81-1.633,4.635-3.891,4.635a3,3,0,0,1-2.7-1.609h-.036a5.1,5.1,0,0,1,.048.7v.7h-1.549V324.209Zm4.011,9.774c1.333,0,2.45-1.141,2.45-3.146,0-1.921-1-3.158-2.414-3.158-1.261,0-2.462.925-2.462,3.182C890.014,332.422,890.807,333.983,892.44,333.983Z" transform="translate(-736.67 -45.492)" fill="#a3a3a3"/>
    <g id="Group_9" data-name="Group 9" transform="translate(142.165 281.503)">
      <rect id="Rectangle_1" data-name="Rectangle 1" width="6.965" height="1.201" transform="translate(0 0)" fill="#a3a3a3"/>
      <rect id="Rectangle_2" data-name="Rectangle 2" width="6.965" height="1.321" transform="translate(0 6.965)" fill="#a3a3a3"/>
      <rect id="Rectangle_3" data-name="Rectangle 3" width="6.965" height="0.841" transform="translate(0 3.602)" fill="#a3a3a3"/>
    </g>
    <g id="Group_10" data-name="Group 10" transform="translate(76.914 291.481)">
      <path id="Path_26" data-name="Path 26" d="M275.612,442.469h.264l.132-1.729h-.276v-.24h.612l.552,1.357a1.124,1.124,0,0,1,.048.156h.012a.759.759,0,0,1,.048-.156l.552-1.357h.612v.24h-.276l.132,1.729h.264v.24h-.829v-.24h.252l-.1-1.333c0-.072.012-.18.012-.18h-.012a1.421,1.421,0,0,1-.048.168l-.492,1.165h-.264l-.492-1.165a1.425,1.425,0,0,1-.048-.168h-.012s.012.108.012.18l-.1,1.333h.252v.24H275.6v-.24Z" transform="translate(-275.6 -440.452)" fill="#a3a3a3"/>
      <path id="Path_27" data-name="Path 27" d="M300.687,446.048h.1v-.06a.3.3,0,0,0-.324-.336.827.827,0,0,0-.444.156l-.12-.216a.975.975,0,0,1,.588-.192.543.543,0,0,1,.6.612v.708a.064.064,0,0,0,.072.072h.156v.24H301c-.132,0-.192-.072-.192-.168v-.024a.5.5,0,0,1,.012-.108h-.012a.557.557,0,0,1-.5.336.472.472,0,0,1-.5-.48C299.787,446.072,300.435,446.048,300.687,446.048Zm-.324.781a.481.481,0,0,0,.42-.516v-.072h-.072c-.144,0-.624.012-.624.312A.272.272,0,0,0,300.363,446.829Z" transform="translate(-296.893 -444.764)" fill="#a3a3a3"/>
      <path id="Path_28" data-name="Path 28" d="M313.712,442.293h.24V440.54H313.7v-.24h.552v1.237h.228l.312-.372h-.216v-.24h.7v.24h-.2l-.384.456v.012a.323.323,0,0,1,.108.132l.264.468a.13.13,0,0,0,.132.06h.1v.24h-.228a.227.227,0,0,1-.252-.144l-.3-.54c-.036-.06-.072-.06-.144-.06h-.12v.516h.2v.24H313.7v-.252Z" transform="translate(-309.125 -440.276)" fill="#a3a3a3"/>
      <path id="Path_29" data-name="Path 29" d="M329.293,445.3a.667.667,0,0,1,.66.745c0,.036-.012.12-.012.12h-1.129a.527.527,0,0,0,.528.54.734.734,0,0,0,.456-.18l.12.228a.927.927,0,0,1-.6.216.835.835,0,0,1-.024-1.669Zm.36.672c-.012-.276-.168-.42-.372-.42a.445.445,0,0,0-.444.42Z" transform="translate(-322.148 -444.676)" fill="#a3a3a3"/>
      <path id="Path_30" data-name="Path 30" d="M349.4,441.873v.168c0,.168.2.264.432.264s.42-.12.42-.336c0-.252-.252-.348-.516-.444-.288-.108-.576-.24-.576-.624a.6.6,0,0,1,.684-.6c.324,0,.648.12.648.372v.264H350.2v-.156c0-.132-.192-.2-.372-.2-.2,0-.372.1-.372.3,0,.24.216.312.456.408.312.12.624.252.624.66a.661.661,0,0,1-.732.648c-.336,0-.708-.156-.708-.468V441.9h.3Z" transform="translate(-340.274 -440.276)" fill="#a3a3a3"/>
      <path id="Path_31" data-name="Path 31" d="M363.524,446.781h.24v-1.057c0-.048-.024-.06-.072-.06H363.5v-.24h.348c.132,0,.192.06.192.18v.084a.454.454,0,0,1-.012.1h.012a.627.627,0,0,1,.552-.384.413.413,0,0,1,.444.372h.012a.611.611,0,0,1,.552-.372q.5,0,.5.612v.781h.24v.24h-.54v-.961c0-.228-.036-.4-.264-.4-.288,0-.456.3-.456.624v.492h.24v.24h-.54v-.961c0-.2-.036-.4-.264-.4-.288,0-.456.324-.456.636v.48h.24v.24h-.78Z" transform="translate(-352.945 -444.764)" fill="#a3a3a3"/>
      <path id="Path_32" data-name="Path 32" d="M389.587,446.048h.1v-.06a.3.3,0,0,0-.324-.336.827.827,0,0,0-.444.156l-.12-.216a.975.975,0,0,1,.588-.192.543.543,0,0,1,.6.612v.708a.064.064,0,0,0,.072.072h.156v.24H389.9c-.132,0-.192-.072-.192-.168v-.024a.5.5,0,0,1,.012-.108h-.012a.557.557,0,0,1-.5.336.472.472,0,0,1-.5-.48C388.687,446.072,389.323,446.048,389.587,446.048Zm-.324.781a.481.481,0,0,0,.42-.516v-.072h-.072c-.144,0-.624.012-.624.312A.264.264,0,0,0,389.263,446.829Z" transform="translate(-375.118 -444.764)" fill="#a3a3a3"/>
      <path id="Path_33" data-name="Path 33" d="M402.836,446.6h.228v-1.057a.064.064,0,0,0-.072-.072H402.8v-.24h.348c.132,0,.192.06.192.18v.1a.5.5,0,0,1-.012.108h.012a.546.546,0,0,1,.48-.42.262.262,0,0,1,.072.012v.3a.293.293,0,0,0-.084-.012c-.324,0-.468.348-.468.66v.42h.228v.24h-.756V446.6Z" transform="translate(-387.526 -444.588)" fill="#a3a3a3"/>
      <path id="Path_34" data-name="Path 34" d="M413.252,442.672H413v-.24h.264V442h.288v.432h.372v.24h-.372v.745c0,.324.216.36.324.36h.072v.252a.5.5,0,0,1-.108.012.539.539,0,0,1-.588-.6Z" transform="translate(-396.501 -441.772)" fill="#a3a3a3"/>
      <path id="Path_35" data-name="Path 35" d="M430.374,440.1c.252,0,.817.1.817.444v.276H430.9v-.168c0-.192-.324-.264-.516-.264a.793.793,0,0,0-.793.853.832.832,0,0,0,.817.9c.156,0,.54-.06.54-.264v-.168h.288v.276c0,.324-.54.432-.841.432a1.109,1.109,0,0,1-1.1-1.165A1.067,1.067,0,0,1,430.374,440.1Z" transform="translate(-410.838 -440.1)" fill="#a3a3a3"/>
      <path id="Path_36" data-name="Path 36" d="M447.412,442.293h.24V440.54H447.4v-.24h.552v.829a.751.751,0,0,1-.012.132h.012a.633.633,0,0,1,.576-.36c.36,0,.528.2.528.612v.781h.24v.24h-.54v-.949c0-.228-.048-.4-.288-.4a.551.551,0,0,0-.516.6v.5h.24v.24h-.781Z" transform="translate(-426.77 -440.276)" fill="#a3a3a3"/>
      <path id="Path_37" data-name="Path 37" d="M465.629,445.3a.815.815,0,0,1,.829.829.829.829,0,1,1-1.657,0A.808.808,0,0,1,465.629,445.3Zm0,1.4a.545.545,0,0,0,.528-.576.534.534,0,0,0-.528-.564.572.572,0,0,0,0,1.141Z" transform="translate(-442.081 -444.676)" fill="#a3a3a3"/>
      <path id="Path_38" data-name="Path 38" d="M480.612,442.381h.24v-1.117H480.6v-.24h.552v1.357h.24v.24h-.781Zm.228-1.981h.312v.312h-.312Z" transform="translate(-455.984 -440.364)" fill="#a3a3a3"/>
      <path id="Path_39" data-name="Path 39" d="M489.617,445.3c.228,0,.6.084.6.36v.192h-.264v-.108c0-.12-.192-.18-.336-.18a.512.512,0,0,0-.516.564.533.533,0,0,0,.54.576.754.754,0,0,0,.492-.2l.108.228a.888.888,0,0,1-.612.24.835.835,0,0,1-.012-1.669Z" transform="translate(-463.199 -444.676)" fill="#a3a3a3"/>
      <path id="Path_40" data-name="Path 40" d="M503.393,445.3a.667.667,0,0,1,.66.745c0,.036-.012.12-.012.12h-1.129a.527.527,0,0,0,.528.54.734.734,0,0,0,.456-.18l.12.228a.927.927,0,0,1-.6.216.8.8,0,0,1-.817-.829A.811.811,0,0,1,503.393,445.3Zm.372.672c-.012-.276-.168-.42-.372-.42a.445.445,0,0,0-.444.42Z" transform="translate(-475.342 -444.676)" fill="#a3a3a3"/>
    </g>
    <g id="Group_11" data-name="Group 11" transform="translate(155.205 272.353)">
      <path id="Path_41" data-name="Path 41" d="M928.092,282.769h.276v-1.717h-.5v.348H927.6v-.6h1.837v.6h-.264v-.348h-.5v1.717h.276v.24H928.1v-.24Z" transform="translate(-927.6 -280.8)" fill="#a3a3a3"/>
      <path id="Path_42" data-name="Path 42" d="M944.5,282.769h.264l.132-1.729h-.276v-.24h.612l.552,1.357a1.125,1.125,0,0,1,.048.156h0a.759.759,0,0,1,.048-.156l.552-1.357h.612v.24h-.276l.132,1.729h.264v.24h-.8v-.24h.252l-.1-1.333c0-.072.012-.18.012-.18h-.012a1.423,1.423,0,0,1-.048.168l-.492,1.165h-.264l-.492-1.165a1.428,1.428,0,0,1-.048-.168h-.012s.012.108.012.18l-.1,1.333h.252v.24H944.5Z" transform="translate(-942.471 -280.8)" fill="#a3a3a3"/>
    </g>
  </g>
</svg>
